<?xml version="1.0" encoding="utf-8"?>
<svg xmlns="http://www.w3.org/2000/svg" viewBox="0 0 258.66666 258.66666" height="258.66666" width="258.66666" id="svg2" version="1.1">
  <g transform="matrix(1.3333333,0,0,-1.3333333,0,258.66667)" id="g10">
    <g transform="scale(0.1)" id="g12">
      <path id="path14" style="fill:#ffffff;fill-opacity:1;fill-rule:evenodd;stroke:none" d="M 2.59766,1933.23 H 1930.16 V 5.66797 H 2.59766 V 1933.23"/>
      <path id="path16" style="fill-opacity: 1; fill-rule: evenodd; stroke: none; fill: rgb(24, 75, 123);" d="m 1154.5,748.586 h 142.84 v 25.266 H 1154.5 Z M 313.203,498.598 793.559,812.766 1173.79,542.684 v 194.011 h 104.26 V 468.617 L 1452.3,344.848 h 140.92 V 996.953 L 986.262,1428.09 313.203,987.887 Z m 0,-68.95 L 792.266,743.02 1352.74,344.848 H 1233.38 L 792.266,658.227 313.203,344.852 Z M 1366.71,1513.7 h 142.85 v 25.27 H 1366.71 Z M 986.262,1594.05 30.9453,969.246 62.0938,920.621 984.973,1524.31 1870.66,895.086 l 31.15,48.625 -411.54,292.329 v 265.78 H 1386 v -191.71 l -399.738,283.94"/>
    </g>
  </g>
</svg>