<?xml version="1.0" encoding="UTF-8"?>
<svg version="1.1" xmlns="http://www.w3.org/2000/svg" width="1024" height="1024">
<path d="M0 0 C337.92 0 675.84 0 1024 0 C1024 337.92 1024 675.84 1024 1024 C686.08 1024 348.16 1024 0 1024 C0 686.08 0 348.16 0 0 Z " fill="#FDFDFD" transform="translate(0,0)"/>
<path d="M0 0 C0.94770264 0.54285645 1.89540527 1.08571289 2.87182617 1.64501953 C4.83978473 2.77511496 6.80196479 3.91533142 8.75830078 5.06542969 C12.28309886 7.13672135 15.8358721 9.1562551 19.390625 11.17553711 C21.97188287 12.64456778 24.54668952 14.12446587 27.12109375 15.60546875 C32.13856751 18.48317786 37.1859029 21.30536544 42.23876953 24.12036133 C58.69221079 33.28812321 58.69221079 33.28812321 66.5625 37.9375 C67.16497559 38.28772217 67.76745117 38.63794434 68.38818359 38.9987793 C71.28220167 40.73200043 72.71063453 41.8784518 74.625 44.75 C74.86550903 47.46452332 74.86550903 47.46452332 74.85205078 50.78198242 C74.85189972 52.02304245 74.85174866 53.26410248 74.85159302 54.54277039 C74.8413798 55.8970048 74.83094781 57.25123758 74.8203125 58.60546875 C74.81658167 59.99123429 74.81373503 61.37700248 74.81173706 62.76277161 C74.80410608 66.4075348 74.7844623 70.05213824 74.7623291 73.69683838 C74.74185908 77.41701089 74.73273288 81.13720926 74.72265625 84.85742188 C74.70121581 92.1550207 74.66708644 99.45248795 74.625 106.75 C76.35000732 106.43977905 76.35000732 106.43977905 78.10986328 106.12329102 C82.39250942 105.3532145 86.67524526 104.58363778 90.95800781 103.81420898 C92.80861812 103.48166227 94.65920435 103.14898156 96.50976562 102.81616211 C99.1757174 102.33672078 101.8417565 101.85776766 104.5078125 101.37890625 C105.32992218 101.23095108 106.15203186 101.08299591 106.99905396 100.93055725 C120.32117244 98.53930859 127.14703271 97.76698774 139.0625 104.875 C141.29266973 106.16588132 143.52314737 107.4562308 145.75390625 108.74609375 C146.89102051 109.41108887 148.02813477 110.07608398 149.19970703 110.76123047 C154.59280021 113.89253033 160.04868606 116.90913289 165.5 119.9375 C173.82459023 124.58797153 182.10237549 129.31171875 190.34008789 134.11425781 C194.50550549 136.53886979 198.6929141 138.90283027 202.9375 141.1875 C213.30846774 146.80040323 213.30846774 146.80040323 214.625 150.75 C214.71948444 152.62180364 214.75413834 154.49683873 214.75642776 156.37102413 C214.76026891 157.54843479 214.76411005 158.72584545 214.7680676 159.93893522 C214.76720112 161.23871779 214.76633463 162.53850037 214.76544189 163.87767029 C214.76802492 165.26746725 214.77103791 166.65726346 214.7744453 168.04705864 C214.78252565 171.87489224 214.78430544 175.7027071 214.78504276 179.53054821 C214.78689148 183.65536003 214.7944378 187.78016208 214.80117798 191.90496826 C214.81476829 200.92749737 214.82078686 209.95002205 214.82518864 218.97255969 C214.82794938 224.60311207 214.83218638 230.23366273 214.83669281 235.86421394 C214.84888545 251.44520046 214.85918539 267.0261856 214.8625679 282.60717678 C214.86278747 283.60465016 214.86300703 284.60212354 214.86323325 285.62982339 C214.86345153 286.62971473 214.86366981 287.62960606 214.8638947 288.65979713 C214.86433817 290.68603989 214.86478473 292.71228264 214.86523438 294.73852539 C214.8654558 295.74361682 214.86567723 296.74870825 214.86590537 297.784257 C214.86985569 314.08026459 214.88731687 330.37622751 214.9105939 346.67221784 C214.93428411 363.39199739 214.94676866 380.11175452 214.94793582 396.83155113 C214.94885379 406.22364201 214.95463698 415.61567468 214.97275543 425.00774956 C214.98812488 433.00310569 214.99329555 440.99838563 214.98501733 448.99375372 C214.98109983 453.07523959 214.98209374 457.15657187 214.99607468 461.23803902 C215.00874785 464.97175548 215.00767462 468.70520191 214.99548396 472.43891764 C214.99258036 474.43506288 215.00451233 476.4312125 215.01690602 478.42732137 C215.01031618 479.60733978 215.00372633 480.78735819 214.9969368 482.00313473 C214.99753389 483.02371564 214.99813097 484.04429655 214.99874616 485.09580415 C214.54999405 488.28266231 214.04530409 489.61242283 211.625 491.75 C208.66654736 492.25139666 208.66654736 492.25139666 204.95761204 492.25336456 C204.27324592 492.25917833 203.58887981 492.26499209 202.88377532 492.27098203 C200.57341547 492.28566675 198.26410402 492.27165851 195.95375061 492.25793457 C194.28758731 492.26254018 192.62142807 492.2688908 190.95527738 492.27684355 C186.36343234 492.29360705 181.77191801 492.2852588 177.18007147 492.27289867 C172.23314794 492.26387901 167.2862828 492.27780258 162.33937073 492.28881836 C152.6428278 492.30664164 142.94640844 492.30274656 133.24986059 492.2911678 C125.37142724 492.28214817 117.49302862 492.28090309 109.6145916 492.28526306 C108.49490702 492.28587599 107.37522244 492.28648893 106.22160802 492.28712043 C103.94724754 492.28839929 101.67288707 492.28969614 99.3985266 492.2910108 C78.05168088 492.30242789 56.70490377 492.28928547 35.35806929 492.26780933 C17.0284734 492.24993978 -1.30102117 492.25303912 -19.63061523 492.27148438 C-40.89754152 492.29287537 -62.1644076 492.30132657 -83.43134314 492.28903532 C-85.69782069 492.28776108 -87.96429826 492.2865036 -90.23077583 492.28526306 C-91.34602857 492.28464596 -92.46128131 492.28402886 -93.61032958 492.28339306 C-101.48177529 492.27993466 -109.35318291 492.28577909 -117.22462273 492.29518127 C-126.81384043 492.30638309 -136.40292711 492.30339965 -145.99212974 492.2820583 C-150.88778868 492.27152299 -155.78322893 492.26746813 -160.67888641 492.28065491 C-165.15653626 492.2925336 -169.63376376 492.28609144 -174.11137504 492.2647447 C-175.73516387 492.26025932 -177.35898805 492.26258802 -178.98275434 492.27224785 C-181.18294041 492.28433742 -183.38166247 492.27201511 -185.5817709 492.25336456 C-186.8058819 492.25271515 -188.02999291 492.25206574 -189.29119819 492.25139666 C-192.375 491.75 -192.375 491.75 -194.76829112 490.1886434 C-196.93646186 486.89781995 -196.92727382 484.0408549 -196.87557125 480.2283411 C-196.88108542 479.46376718 -196.88659958 478.69919325 -196.89228085 477.91145042 C-196.90594026 475.33428445 -196.89094474 472.75807231 -196.87620544 470.18092346 C-196.88009602 468.32074541 -196.88573449 466.46057032 -196.89297634 464.6004023 C-196.90778417 459.47687788 -196.89751818 454.35365913 -196.88323963 449.23014438 C-196.87216384 443.70926109 -196.8840612 438.18842187 -196.89308167 432.6675415 C-196.9070396 421.84716871 -196.89943898 411.02691234 -196.88440608 400.20654506 C-196.86757472 387.61390459 -196.87075264 375.02129336 -196.87450016 362.42864513 C-196.88056136 339.28486056 -196.86475829 316.14113579 -196.83931253 292.99737055 C-196.81619954 271.86338049 -196.81080789 250.72945884 -196.82104492 229.59545898 C-196.82364687 224.18454014 -196.82623186 218.7736213 -196.82864285 213.36270237 C-196.82894029 212.69658542 -196.82923774 212.03046846 -196.8295442 211.34416615 C-196.83715702 193.69331634 -196.83068963 176.04247139 -196.81994683 158.39162391 C-196.81842094 155.86198835 -196.81690058 153.33235278 -196.81538582 150.80271721 C-196.814628 149.55798699 -196.81387019 148.31325677 -196.81308941 147.03080745 C-196.8083411 138.24711656 -196.81020192 129.4634411 -196.81445122 120.67975044 C-196.81937161 109.97876402 -196.81342163 99.27784843 -196.79355692 88.57687826 C-196.78366685 83.11405317 -196.77859828 77.65133607 -196.78644943 72.18850517 C-196.79348421 67.19156211 -196.78675335 62.19483736 -196.7688458 57.19792318 C-196.76478694 55.38639523 -196.76582511 53.57484752 -196.77236467 51.76332683 C-196.7804731 49.30778756 -196.77025405 46.85299135 -196.75531673 44.39750004 C-196.76205439 43.6882187 -196.76879204 42.97893737 -196.77573386 42.24816266 C-196.72471947 37.93488711 -196.09341907 35.1398695 -193.375 31.75 C-190.81301747 30.83738142 -188.67268512 30.28114676 -186.02734375 29.828125 C-184.90702255 29.60922859 -184.90702255 29.60922859 -183.7640686 29.38591003 C-182.13901162 29.07088616 -180.51205565 28.76554 -178.88357544 28.46871948 C-176.27192488 27.99260296 -173.66600893 27.49220709 -171.06030273 26.98461914 C-168.31469364 26.44987755 -165.56890475 25.91653666 -162.8216095 25.39051819 C-152.82740869 23.47434761 -142.88315702 21.33920574 -132.9375 19.1875 C-131.16101322 18.80497524 -129.38448336 18.4226505 -127.60791016 18.04052734 C-122.52946896 16.94739257 -117.45205294 15.84956249 -112.375 14.75 C-111.62565186 14.58779968 -110.87630371 14.42559937 -110.10424805 14.25848389 C-94.10349908 10.79385669 -78.12209251 7.2501568 -62.15930176 3.61483765 C-53.33419236 1.60752458 -44.49932122 -0.30479465 -35.61035156 -2.00854492 C-34.89459961 -2.14623291 -34.17884766 -2.2839209 -33.44140625 -2.42578125 C-32.41490967 -2.62228271 -32.41490967 -2.62228271 -31.36767578 -2.82275391 C-29.3874393 -3.24733291 -27.47247074 -3.7937401 -25.52734375 -4.35546875 C-15.60280378 -6.79901542 -8.63637572 -5.18579618 0 0 Z " fill="#4F829D" transform="translate(504.375,173.25)"/>
<path d="M0 0 C0 149.16 0 298.32 0 452 C-49.83 452 -99.66 452 -151 452 C-151 313.4 -151 174.8 -151 32 C-88.32328974 18.3250814 -88.32328974 18.3250814 -66.375 13.75 C-61.65202023 12.76195757 -56.92944375 11.77199992 -52.20703125 10.78125 C-51.07919724 10.54472717 -49.95136322 10.30820435 -48.78935242 10.06451416 C-36.6560689 7.51537031 -24.53905742 4.89146132 -12.42919922 2.23339844 C-11.72342239 2.07923462 -11.01764557 1.9250708 -10.29048157 1.76623535 C-8.43296614 1.36041754 -6.57595759 0.95228149 -4.71899414 0.54394531 C-2 0 -2 0 0 0 Z " fill="#FDFDFD" transform="translate(479,191)"/>
<path d="M0 0 C0 115.17 0 230.34 0 349 C-39.93 349 -79.86 349 -121 349 C-121 241.09 -121 133.18 -121 22 C-106.3759225 18.62521288 -106.3759225 18.62521288 -100.34667969 17.5612793 C-99.68577835 17.44368256 -99.02487701 17.32608582 -98.34394836 17.20492554 C-96.20379845 16.82488874 -94.06285676 16.44953802 -91.921875 16.07421875 C-90.38277692 15.80173275 -88.84373609 15.52892317 -87.30474854 15.2558136 C-83.26729603 14.54010212 -79.2291716 13.82826026 -75.19085693 13.11743164 C-68.82545968 11.99623292 -62.4611731 10.86873499 -56.09672546 9.7421608 C-53.74250717 9.32565748 -51.38816492 8.90986004 -49.03381348 8.49411011 C-41.13659773 7.09803698 -33.24258215 5.68609204 -25.35351562 4.24462891 C-24.58131306 4.10360276 -23.80911049 3.96257662 -23.01350784 3.81727695 C-19.33803715 3.14545125 -15.66305844 2.47106464 -11.9887085 1.7931366 C-10.70111633 1.55694107 -9.41352417 1.32074554 -8.08691406 1.07739258 C-6.38924896 0.76418816 -6.38924896 0.76418816 -4.6572876 0.44465637 C-2 0 -2 0 0 0 Z " fill="#FDFDFD" transform="translate(620,294)"/>
<path d="M0 0 C4.01015181 1.29778257 7.54863428 2.70779239 11.2109375 4.80078125 C12.19739258 5.35983154 13.18384766 5.91888184 14.20019531 6.49487305 C15.24788086 7.09468994 16.29556641 7.69450684 17.375 8.3125 C19.60592685 9.577011 21.83772182 10.83999145 24.0703125 12.1015625 C25.21145508 12.74641602 26.35259766 13.39126953 27.52832031 14.05566406 C34.07503013 17.72218987 40.68495593 21.27175338 47.29443359 24.82348633 C48.23367676 25.32904053 49.17291992 25.83459473 50.140625 26.35546875 C51.37087402 27.01518677 51.37087402 27.01518677 52.62597656 27.68823242 C53.4094043 28.12111572 54.19283203 28.55399902 55 29 C55.86127493 29.41426595 56.72254985 29.8285319 57.60992402 30.25535136 C60 32 60 32 60.62099248 34.36673659 C60.61909388 35.31034161 60.61719528 36.25394663 60.61523914 37.22614574 C60.62519439 38.31545491 60.63514963 39.40476408 60.64540654 40.52708262 C60.62356023 42.32910222 60.62356023 42.32910222 60.60127258 44.16752625 C60.60554471 45.4400743 60.60981683 46.71262236 60.61421841 48.02373248 C60.62542748 51.56312684 60.60536053 55.1017683 60.58032811 58.64106667 C60.55878295 62.45495566 60.5660393 66.26880045 60.56983948 70.08273315 C60.57246425 76.69296559 60.55674561 83.30295171 60.52865028 89.91312218 C60.48805548 99.4703353 60.47499721 109.02742904 60.46871033 118.58471904 C60.4577608 134.08983143 60.42446882 149.59481247 60.37719727 165.09985352 C60.33131866 180.1636489 60.29591845 195.22740864 60.2746582 210.29125977 C60.27334459 211.21942722 60.27203097 212.14759467 60.27067754 213.10388841 C60.26415247 217.76012245 60.2578339 222.41635673 60.25161803 227.07259119 C60.19976452 265.71517744 60.10757836 304.35752081 60 343 C40.53 343 21.06 343 1 343 C0.82544826 315.27087752 0.65858824 287.54171837 0.5 259.8125 C0.49405146 258.7742574 0.48810292 257.7360148 0.48197412 256.66631031 C0.12011882 193.4022628 -0.09470602 130.14011108 -0.0625 66.875 C-0.06186365 65.5865508 -0.06186365 65.5865508 -0.06121445 64.27207232 C-0.05044783 42.84803601 -0.03096919 21.42401712 0 0 Z " fill="#FDFDFD" transform="translate(639,300)"/>
<path d="M0 0 C8.16312051 5.02752965 12.83753799 11.32486587 15.22265625 20.609375 C18.86557509 36.90315743 20.19833196 57.74995257 10.96875 72.45703125 C4.97370108 80.2551024 -1.88479226 84.70044068 -11.58984375 86.484375 C-23.86030844 87.53406077 -34.76920031 86.74637713 -44.546875 78.578125 C-55.36315183 67.49299234 -55.81444948 53.55969238 -55.77075195 38.97119141 C-55.58236229 26.22018604 -54.22870799 14.56171825 -45.52734375 4.671875 C-33.45075878 -6.17135661 -14.25046141 -6.79992562 0 0 Z " fill="#4D819C" transform="translate(810.58984375,732.515625)"/>
<path d="M0 0 C0.6703125 0.41121094 1.340625 0.82242188 2.03125 1.24609375 C2.7428125 1.64699219 3.454375 2.04789063 4.1875 2.4609375 C12.22549462 7.63464672 15.79654742 16.24546512 18.03125 25.24609375 C18.40508943 30.06014039 18.4028863 34.86995487 18.40185547 39.69628906 C18.4062129 41.97668067 18.44255002 44.25510797 18.48046875 46.53515625 C18.56963539 58.20071376 16.97414896 69.03056787 8.5390625 77.796875 C-0.62383828 86.30528287 -11.01225014 87.65421801 -23.1484375 87.51171875 C-32.46513882 86.86393175 -38.68152499 83.23783155 -45.6796875 77.24609375 C-53.23435619 67.34509452 -53.74090137 57.24203302 -53.56567383 45.2824707 C-53.53125484 42.68395914 -53.54509527 40.088843 -53.56445312 37.49023438 C-53.55482921 25.47384164 -52.59633122 15.05794522 -43.89453125 5.96484375 C-32.69305908 -4.03241336 -13.64627597 -6.94326365 0 0 Z " fill="#4E829D" transform="translate(498.96875,731.75390625)"/>
<path d="M0 0 C3.97824775 1.23068096 7.4889327 2.67142155 11.10546875 4.73046875 C12.56206909 5.55369629 12.56206909 5.55369629 14.0480957 6.39355469 C15.08409912 6.98555664 16.12010254 7.57755859 17.1875 8.1875 C19.41376948 9.4471326 21.64034332 10.7062274 23.8671875 11.96484375 C24.44271866 12.29102692 25.01824982 12.61721008 25.61122131 12.95327759 C31.72975048 16.42015762 37.87338031 19.84146481 44.02163696 23.25527954 C45.78678009 24.23571409 47.55103845 25.2177258 49.31518555 26.19995117 C50.39324463 26.79912354 51.47130371 27.3982959 52.58203125 28.015625 C53.53311768 28.54446289 54.4842041 29.07330078 55.46411133 29.61816406 C57.61807584 30.79188498 59.80597468 31.90298734 62 33 C62 51.48 62 69.96 62 89 C49.10097622 91.45695691 36.20314658 93.91058327 23.2902832 96.29248047 C20.74593769 96.76229065 18.20207861 97.23468339 15.65820312 97.70703125 C14.02867476 98.00796917 12.39911861 98.3087567 10.76953125 98.609375 C10.01452835 98.74994324 9.25952545 98.89051147 8.48164368 99.03533936 C3.22858009 100 3.22858009 100 1 100 C0.34059279 66.66336114 -0.18028244 33.34393083 0 0 Z " fill="#FBFCFC" transform="translate(498,195)"/>
<path d="M0 0 C6.27 0 12.54 0 19 0 C24.62934873 11.00961123 29.74162109 22.09157074 34.5 33.5 C35.13752786 35.01713434 35.77554699 36.53406232 36.4140625 38.05078125 C37.94834364 41.69818319 39.47608427 45.34825589 41 49 C42.99043971 46.01434043 44.22083551 43.2431167 45.57421875 39.92578125 C46.07397217 38.70729492 46.57372559 37.48880859 47.08862305 36.23339844 C47.48082535 35.27137512 47.48082535 35.27137512 47.88095093 34.28991699 C49.2254866 30.99351783 50.58149829 27.70185187 51.9375 24.41015625 C52.33560127 23.44310257 52.33560127 23.44310257 52.741745 22.45651245 C54.84083483 17.36577621 56.98207419 12.29553688 59.1875 7.25 C59.6055188 6.28767456 59.6055188 6.28767456 60.03198242 5.3059082 C61.87218572 1.12781428 61.87218572 1.12781428 63 0 C69.6 0 76.2 0 83 0 C83 28.38 83 56.76 83 86 C77.72 86 72.44 86 67 86 C67 65.21 67 44.42 67 23 C65.68 27.29 64.36 31.58 63 36 C62.13777963 38.39566763 61.24771047 40.78185618 60.30859375 43.1484375 C59.83873047 44.33824219 59.36886719 45.52804687 58.88476562 46.75390625 C58.40716797 47.94886719 57.92957031 49.14382813 57.4375 50.375 C56.95603516 51.59316406 56.47457031 52.81132813 55.97851562 54.06640625 C53.72752698 59.74496632 51.45104981 65.40467416 49 71 C44.05 71 39.1 71 34 71 C32.23468221 66.86197105 30.47326418 62.72264152 28.72045898 58.5793457 C28.12616621 57.17742839 27.52988852 55.77635046 26.93139648 54.3762207 C26.05938001 52.33515944 25.19514336 50.29093402 24.33203125 48.24609375 C23.94420219 47.34509193 23.94420219 47.34509193 23.54853821 46.42588806 C20.59602068 39.38790957 18.43751099 32.31253297 16 25 C16 45.13 16 65.26 16 86 C10.72 86 5.44 86 0 86 C0 57.62 0 29.24 0 0 Z " fill="#4B809B" transform="translate(262,731)"/>
<path d="M0 0 C5.28 0 10.56 0 16 0 C16.33 19.8 16.66 39.6 17 60 C18.65 55.71 20.3 51.42 22 47 C24.09683328 43.12933049 26.21805787 39.37852277 28.5 35.625 C29.73326303 33.55557604 30.96499133 31.48523681 32.1953125 29.4140625 C32.82083008 28.36508789 33.44634766 27.31611328 34.09082031 26.23535156 C37.259595 20.86545359 40.31837542 15.43428323 43.375 10 C43.94025391 8.99662598 44.50550781 7.99325195 45.08789062 6.95947266 C46.39341783 4.64048706 47.69695125 2.32037916 49 0 C54.94 0 60.88 0 67 0 C67 28.38 67 56.76 67 86 C55 87 55 87 51 86 C50.67 65.54 50.34 45.08 50 24 C47.36 29.28 44.72 34.56 42 40 C39.62005689 44.27981186 37.22261818 48.52576439 34.75 52.75 C34.11102783 53.84820068 33.47205566 54.94640137 32.8137207 56.07788086 C30.88260639 59.38928749 28.94269414 62.69537606 27 66 C26.39913574 67.02561035 25.79827148 68.0512207 25.17919922 69.10791016 C23.52254889 71.93047159 21.85737421 74.74774601 20.1875 77.5625 C19.69024414 78.4071582 19.19298828 79.25181641 18.68066406 80.12207031 C18.22272461 80.88745117 17.76478516 81.65283203 17.29296875 82.44140625 C16.8961792 83.10857666 16.49938965 83.77574707 16.09057617 84.46313477 C15 86 15 86 13 87 C11.35643193 87.09585131 9.70885358 87.12983511 8.0625 87.125 C7.18722656 87.12757813 6.31195312 87.13015625 5.41015625 87.1328125 C3 87 3 87 0 86 C0 57.62 0 29.24 0 0 Z " fill="#4C819C" transform="translate(842,731)"/>
<path d="M0 0 C5.21031273 -0.09980707 10.42005385 -0.17190561 15.63110352 -0.21972656 C17.39910593 -0.23968762 19.16704366 -0.26686652 20.93481445 -0.30175781 C33.09615267 -0.53556358 45.04642737 -0.75192421 54.5 8.15625 C60.46478194 15.48796114 62.76302839 23.72396858 62 33 C60.71590248 41.0714701 56.0332183 46.70068029 50 52 C42.18787763 56.87455912 34.08695066 57.14954662 25.125 57.0625 C22.11375 57.041875 19.1025 57.02125 16 57 C16 66.57 16 76.14 16 86 C12.3184375 86.2784375 12.3184375 86.2784375 8.5625 86.5625 C7.78849854 86.62381104 7.01449707 86.68512207 6.21704102 86.74829102 C4.48038342 86.87169543 2.73991955 86.9376445 1 87 C-0.78857062 85.21142938 -0.11990579 82.79876866 -0.12442017 80.41790771 C-0.12082489 79.61733948 -0.11722961 78.81677124 -0.11352539 77.99194336 C-0.11367142 77.15299026 -0.11381744 76.31403717 -0.1139679 75.44966125 C-0.1132685 72.66302956 -0.10547485 69.87646384 -0.09765625 67.08984375 C-0.09579217 65.16313209 -0.09436822 63.23641995 -0.09336853 61.30970764 C-0.08954259 56.22812603 -0.07971166 51.1465728 -0.06866455 46.06500244 C-0.05845206 40.88383366 -0.05387126 35.70266031 -0.04882812 30.52148438 C-0.03808946 20.34764375 -0.02101213 10.17382423 0 0 Z " fill="#4E829C" transform="translate(684,731)"/>
<path d="M0 0 C21.78 0 43.56 0 66 0 C66 28.38 66 56.76 66 86 C61.05 86.33 56.1 86.66 51 87 C50 86 50 86 49.87974548 83.10838318 C49.88196609 81.81376663 49.88418671 80.51915009 49.88647461 79.18530273 C49.88632858 78.47314606 49.88618256 77.76098938 49.8860321 77.0272522 C49.8867313 74.66266888 49.89452394 72.29816339 49.90234375 69.93359375 C49.90420791 68.29834537 49.90563182 66.66309643 49.90663147 65.02784729 C49.91045682 60.71565215 49.92028725 56.40349048 49.93133545 52.09130859 C49.94334373 46.9218032 49.94795173 41.75228664 49.95378876 36.5827713 C49.963499 28.72182423 49.98265542 20.86095065 50 13 C38.45 13 26.9 13 15 13 C15 37.09 15 61.18 15 86 C10.05 86 5.1 86 0 86 C0 57.62 0 29.24 0 0 Z " fill="#4A7F9B" transform="translate(364,731)"/>
<path d="M0 0 C17.82 0 35.64 0 54 0 C54 3.96 54 7.92 54 12 C53 13 53 13 49.48999023 13.11352539 C47.92951578 13.11336626 46.36903607 13.10767142 44.80859375 13.09765625 C43.98875504 13.0962413 43.16891632 13.09482635 42.32423401 13.09336853 C39.69528618 13.08775289 37.06642227 13.07519779 34.4375 13.0625 C32.65950643 13.05748701 30.88151154 13.05292376 29.10351562 13.04882812 C24.73561842 13.03862752 20.3679036 13.01905532 16 13 C16 20.92 16 28.84 16 37 C28.54 37 41.08 37 54 37 C54 41.29 54 45.58 54 50 C41.46 50 28.92 50 16 50 C16 57.59 16 65.18 16 73 C28.54 73 41.08 73 54 73 C54 77.29 54 81.58 54 86 C36.18 86 18.36 86 0 86 C0 57.62 0 29.24 0 0 Z " fill="#4B809C" transform="translate(192,731)"/>
<path d="M0 0 C7.99515942 5.48394636 11.80144742 11.74283181 13.80078125 21.1796875 C13.86652344 21.78039062 13.93226563 22.38109375 14 23 C13 24 13 24 9.40234375 24.09765625 C7.91403133 24.0909822 6.42573568 24.07902183 4.9375 24.0625 C4.17888672 24.05798828 3.42027344 24.05347656 2.63867188 24.04882812 C0.75908129 24.0370068 -1.12046899 24.01907078 -3 24 C-3.29390625 22.98679687 -3.29390625 22.98679687 -3.59375 21.953125 C-5.69108158 15.62080425 -5.69108158 15.62080425 -10.5625 11.375 C-16.34838425 9.12313816 -22.41731576 8.86358931 -28.33984375 10.7421875 C-33.68257315 13.46827289 -35.33296607 17.18598572 -37.20385742 22.6809082 C-38.55000486 28.2929519 -38.55515323 33.89795629 -38.46655273 39.63500977 C-38.43738485 41.69563469 -38.44602985 43.75370614 -38.45898438 45.81445312 C-38.44558432 54.24442184 -38.06524281 60.97139516 -32.8125 67.875 C-27.73515731 71.71121448 -22.97070175 72.24320756 -16.8125 71.8125 C-11.40116207 71.06116858 -11.40116207 71.06116858 -7 68 C-5.39540741 64.71667523 -4.21412794 61.46251301 -3 58 C2.61 58 8.22 58 14 58 C12.04826446 69.1098792 9.14121227 75.10212363 0 82 C-9.32196783 87.49901941 -23.17178962 87.68439261 -33.53125 85.12890625 C-42.89318763 81.52361461 -48.62492308 75.91219373 -53 67 C-55.03873702 61.9821 -55.3208742 57.60006353 -55.3359375 52.26953125 C-55.3425943 51.43846359 -55.3492511 50.60739594 -55.35610962 49.75114441 C-55.36620018 47.9971232 -55.37092776 46.24306388 -55.37060547 44.48901367 C-55.3749586 41.83771553 -55.41125926 39.18811137 -55.44921875 36.53710938 C-55.53538076 23.81060619 -54.47007917 13.53895913 -45.2890625 3.9453125 C-33.49536106 -6.07732115 -13.43896185 -7.65368011 0 0 Z " fill="#4D819C" transform="translate(585,733)"/>
<path d="M0 0 C4.73851468 2.74738124 7.76862252 6.30475405 9.3215332 11.59912109 C10.6377801 18.08581111 11.02200561 24.32701606 11 30.9375 C11.01611328 31.90558594 11.03222656 32.87367188 11.04882812 33.87109375 C11.05421367 41.89556115 9.96688269 51.02682102 4.6875 57.4375 C-1.07117984 61.58374949 -6.59062101 63.17895207 -13.67578125 62.06640625 C-18.68493811 60.71098734 -21.77194657 58.56618222 -25.12109375 54.64453125 C-29.0247302 47.41320471 -28.65450585 39.46489187 -28.62817383 31.45605469 C-28.62500631 29.44150998 -28.64856271 27.42842737 -28.67382812 25.4140625 C-28.67803155 16.99040484 -28.53179166 10.35285472 -23 3.625 C-16.02118464 -2.05543111 -8.42893332 -3.69662104 0 0 Z " fill="#FBFCFC" transform="translate(800.3125,743.5625)"/>
<path d="M0 0 C7.68871097 7.85549429 7.21319261 15.48499541 7.24023438 25.96142578 C7.24990855 28.22856785 7.28093954 30.49479037 7.3125 32.76171875 C7.37643876 41.44127077 7.3770597 48.6580661 1.8125 55.8125 C-2.67208014 59.30050677 -6.88793107 60.73599138 -12.5 61.4375 C-18.32819898 60.70897513 -22.96777438 58.50984211 -26.875 54.0625 C-30.47618891 48.87255128 -31.25441034 45.07086621 -31.265625 38.7578125 C-31.26753845 38.07121552 -31.2694519 37.38461853 -31.27142334 36.67721558 C-31.27277924 35.22995638 -31.26912448 33.78268478 -31.26074219 32.33544922 C-31.25006665 30.1387142 -31.26064018 27.94280301 -31.2734375 25.74609375 C-31.27211516 24.33333155 -31.26955122 22.92056986 -31.265625 21.5078125 C-31.26336914 20.23566895 -31.26111328 18.96352539 -31.25878906 17.65283203 C-30.79724398 11.13807971 -29.07340393 6.12085066 -25 1 C-17.69375553 -4.29702724 -7.75134864 -4.84259513 0 0 Z " fill="#FCFCFD" transform="translate(493,745)"/>
<path d="M0 0 C21.12 0 42.24 0 64 0 C64 4.29 64 8.58 64 13 C56.41 13 48.82 13 41 13 C41 37.09 41 61.18 41 86 C35.39 86 29.78 86 24 86 C24 61.91 24 37.82 24 13 C16.08 13 8.16 13 0 13 C0 8.71 0 4.42 0 0 Z " fill="#4C819C" transform="translate(607,731)"/>
<path d="M0 0 C20.79 0 41.58 0 63 0 C63 4.29 63 8.58 63 13 C55.08 13 47.16 13 39 13 C39 37.09 39 61.18 39 86 C33.39 86 27.78 86 22 86 C22 61.91 22 37.82 22 13 C14.74 13 7.48 13 0 13 C0 8.71 0 4.42 0 0 Z " fill="#4D819C" transform="translate(117,731)"/>
<path d="M0 0 C0 17.82 0 35.64 0 54 C-9.24 54.33 -18.48 54.66 -28 55 C-28.33 37.18 -28.66 19.36 -29 1 C-18 0 -18 0 0 0 Z " fill="#4D819C" transform="translate(442,438)"/>
<path d="M0 0 C9.57 0 19.14 0 29 0 C29 16.83 29 33.66 29 51 C19.43 51 9.86 51 0 51 C0 34.17 0 17.34 0 0 Z " fill="#4E829D" transform="translate(414,532)"/>
<path d="M0 0 C1.12591553 0.00523682 2.25183105 0.01047363 3.41186523 0.01586914 C4.50571533 0.0183667 5.59956543 0.02086426 6.7265625 0.0234375 C8.82729126 0.03709351 8.82729126 0.03709351 10.97045898 0.05102539 C17.62202148 0.08196289 17.62202148 0.08196289 24.40795898 0.11352539 C24.73795898 17.27352539 25.06795898 34.43352539 25.40795898 52.11352539 C15.83795898 52.11352539 6.26795898 52.11352539 -3.59204102 52.11352539 C-3.61494379 44.86861325 -3.63487278 37.6238257 -3.64697266 30.37890625 C-3.65201458 27.91210506 -3.65884792 25.44530687 -3.66748047 22.97851562 C-3.67955226 19.4414801 -3.68527057 15.90448394 -3.68969727 12.36743164 C-3.69485855 11.25703018 -3.70001984 10.14662872 -3.70533752 9.00257874 C-3.70541306 7.98159592 -3.70548859 6.9606131 -3.70556641 5.90869141 C-3.70778702 5.0049025 -3.71000763 4.10111359 -3.71229553 3.16993713 C-3.53059252 0.06272574 -3.13314663 0.13722456 0 0 Z " fill="#4E829D" transform="translate(363.592041015625,530.886474609375)"/>
<path d="M0 0 C0.16814982 7.06567939 0.3280544 14.13151059 0.48217773 21.19750977 C0.53560753 23.60217533 0.59093763 26.00679944 0.64819336 28.41137695 C0.73007666 31.86400412 0.80516584 35.31672178 0.87890625 38.76953125 C0.90594131 39.84773636 0.93297638 40.92594147 0.96083069 42.03681946 C0.98092697 43.03763046 1.00102325 44.03844147 1.02172852 45.06958008 C1.04171402 45.95116287 1.06169952 46.83274567 1.08229065 47.74104309 C1 50 1 50 0 53 C-2.99948391 53.33865141 -5.99944926 53.67105073 -9 54 C-10.25876953 54.14308594 -10.25876953 54.14308594 -11.54296875 54.2890625 C-12.37441406 54.37929688 -13.20585937 54.46953125 -14.0625 54.5625 C-14.81660156 54.64628906 -15.57070313 54.73007812 -16.34765625 54.81640625 C-19.89048754 55.06163905 -23.44869141 55 -27 55 C-27 37.84 -27 20.68 -27 3 C-22.05 2.34 -17.1 1.68 -12 1 C-9.6796875 0.690625 -9.6796875 0.690625 -7.3125 0.375 C-4 0 -4 0 0 0 Z " fill="#4D819C" transform="translate(441,345)"/>
<path d="M0 0 C0 16.5 0 33 0 50 C-20 53 -20 53 -28 53 C-28.02526838 46.03996553 -28.04283222 39.0799428 -28.05493164 32.11987305 C-28.05997341 29.75007688 -28.06680665 27.38028385 -28.07543945 25.01049805 C-28.0875119 21.61245961 -28.09322971 18.21446215 -28.09765625 14.81640625 C-28.10281754 13.74975235 -28.10797882 12.68309845 -28.11329651 11.5841217 C-28.11337204 10.60318039 -28.11344757 9.62223907 -28.11352539 8.61157227 C-28.115746 7.74331314 -28.11796661 6.87505402 -28.12025452 5.98048401 C-28 4 -28 4 -27 3 C-25.42989691 2.70266593 -23.8490239 2.46168404 -22.265625 2.24609375 C-20.81542969 2.04790039 -20.81542969 2.04790039 -19.3359375 1.84570312 C-18.31757813 1.71099609 -17.29921875 1.57628906 -16.25 1.4375 C-15.24710937 1.29892578 -14.24421875 1.16035156 -13.2109375 1.01757812 C-8.72253277 0.4133698 -4.54902432 0 0 0 Z " fill="#4D819C" transform="translate(442,256)"/>
<path d="M0 0 C0 16.83 0 33.66 0 51 C-8.88363208 52.48060535 -17.99382928 52 -27 52 C-27 35.17 -27 18.34 -27 1 C-18.26273102 -1.18431725 -9.00617072 0 0 0 Z " fill="#4C819C" transform="translate(387,442)"/>
<path d="M0 0 C0.02526787 7.10244999 0.04283201 14.20488848 0.05493164 21.30737305 C0.05997349 23.72567172 0.06680678 26.14396733 0.07543945 28.56225586 C0.08751157 32.02979283 0.09322963 35.49728966 0.09765625 38.96484375 C0.10281754 40.05337143 0.10797882 41.14189911 0.11329651 42.26341248 C0.11340981 43.76485558 0.11340981 43.76485558 0.11352539 45.29663086 C0.115746 46.18265488 0.11796661 47.06867889 0.12025452 47.98155212 C0 50 0 50 -1 51 C-9.77954783 52.41099876 -17.90671438 52 -27 52 C-27 35.5 -27 19 -27 2 C-7.875 -0.25 -7.875 -0.25 0 0 Z " fill="#4D819C" transform="translate(387,352)"/>
<path d="M0 0 C0 16.83 0 33.66 0 51 C-19 53 -19 53 -27 53 C-27 36.83 -27 20.66 -27 4 C-16.60344828 1.68965517 -16.60344828 1.68965517 -11.8125 0.875 C-10.84957031 0.70742188 -9.88664062 0.53984375 -8.89453125 0.3671875 C-6 0 -6 0 0 0 Z " fill="#4D819C" transform="translate(387,263)"/>
<path d="M0 0 C7.59 0 15.18 0 23 0 C23 15.51 23 31.02 23 47 C15.08 47 7.16 47 -1 47 C-1.02290439 40.4671604 -1.04283288 33.93445903 -1.05493164 27.40161133 C-1.05997317 25.17732268 -1.06680623 22.95303737 -1.07543945 20.72875977 C-1.08751298 17.53921691 -1.09322996 14.34971771 -1.09765625 11.16015625 C-1.10281754 10.15912369 -1.10797882 9.15809113 -1.11329651 8.12672424 C-1.11337204 7.20584518 -1.11344757 6.28496613 -1.11352539 5.33618164 C-1.115746 4.52121719 -1.11796661 3.70625275 -1.12025452 2.86659241 C-1 1 -1 1 0 0 Z " fill="#52859F" transform="translate(523,517)"/>
<path d="M0 0 C7.59 0 15.18 0 23 0 C23 15.18 23 30.36 23 46 C20.14163009 46.95278997 18.3335544 47.12871126 15.3671875 47.1328125 C14.03494141 47.13474609 14.03494141 47.13474609 12.67578125 47.13671875 C11.75152344 47.13285156 10.82726562 47.12898438 9.875 47.125 C8.94300781 47.12886719 8.01101563 47.13273437 7.05078125 47.13671875 C6.16519531 47.13542969 5.27960937 47.13414062 4.3671875 47.1328125 C3.55362793 47.13168457 2.74006836 47.13055664 1.90185547 47.12939453 C0 47 0 47 -1 46 C-1.09804851 44.5932478 -1.12798186 43.18164864 -1.12939453 41.77148438 C-1.13254669 40.87385376 -1.13569885 39.97622314 -1.13894653 39.0513916 C-1.1369223 38.07536987 -1.13489807 37.09934814 -1.1328125 36.09375 C-1.13376923 35.0987146 -1.13472595 34.1036792 -1.13571167 33.07849121 C-1.1363936 30.97013282 -1.13453844 28.86177235 -1.13037109 26.75341797 C-1.12502303 23.51394973 -1.13031567 20.27462015 -1.13671875 17.03515625 C-1.13605797 14.99218719 -1.13477681 12.94921822 -1.1328125 10.90625 C-1.13483673 9.93022827 -1.13686096 8.95420654 -1.13894653 7.9486084 C-1.13579437 7.05097778 -1.13264221 6.15334717 -1.12939453 5.22851562 C-1.12859894 4.43433228 -1.12780334 3.64014893 -1.12698364 2.82189941 C-1 1 -1 1 0 0 Z " fill="#5485A0" transform="translate(568,432)"/>
<path d="M0 0 C0 15.18 0 30.36 0 46 C-5 48 -5 48 -24 48 C-24 32.82 -24 17.64 -24 2 C-3 0 -3 0 0 0 Z " fill="#50839E" transform="translate(591,346)"/>
<path d="M0 0 C7.92 0 15.84 0 24 0 C24 15.18 24 30.36 24 46 C16.08 46 8.16 46 0 46 C0 30.82 0 15.64 0 0 Z " fill="#4B809B" transform="translate(522,433)"/>
<path d="M0 0 C0 15.18 0 30.36 0 46 C-7.92 46 -15.84 46 -24 46 C-24 31.15 -24 16.3 -24 1 C-16.01079268 0.46738618 -8.00694143 0 0 0 Z " fill="#4C809C" transform="translate(546,349)"/>
<path d="M0 0 C7.59 0 15.18 0 23 0 C23 15.51 23 31.02 23 47 C15.41 47 7.82 47 0 47 C0 31.49 0 15.98 0 0 Z " fill="#4D819C" transform="translate(568,516)"/>
<path d="M0 0 C3.01125 -0.061875 6.0225 -0.12375 9.125 -0.1875 C10.06230957 -0.21481201 10.99961914 -0.24212402 11.96533203 -0.27026367 C17.06255846 -0.32074738 20.62318041 0.08887463 25 3 C28.43673596 7.522021 29.66847839 11.03888427 29.38671875 16.72265625 C28.55996291 21.59132951 26.76417151 25.48736075 23 28.71484375 C18.57115437 30.61209663 14.44444721 30.31760126 9.6875 30.1875 C4.8921875 30.0946875 4.8921875 30.0946875 0 30 C0 20.1 0 10.2 0 0 Z " fill="#FCFCFC" transform="translate(700,744)"/>
<path d="M0 0 C7.59 0 15.18 0 23 0 C23 15.18 23 30.36 23 46 C16.73 46 10.46 46 4 46 C4 45.67 4 45.34 4 45 C9.61 45 15.22 45 21 45 C21 31.14 21 17.28 21 3 C14.4 2.67 7.8 2.34 1 2 C1 16.52 1 31.04 1 46 C0.34 46 -0.32 46 -1 46 C-1.02527062 39.60962769 -1.04283317 33.21926817 -1.05493164 26.82885742 C-1.05997308 24.65307127 -1.06680607 22.47728853 -1.07543945 20.30151367 C-1.08751338 17.18146933 -1.09323005 14.06146962 -1.09765625 10.94140625 C-1.10281754 9.96224747 -1.10797882 8.98308868 -1.11329651 7.97425842 C-1.11337204 7.07340012 -1.11344757 6.17254181 -1.11352539 5.24438477 C-1.115746 4.44718521 -1.11796661 3.64998566 -1.12025452 2.82862854 C-1 1 -1 1 0 0 Z " fill="#447B97" transform="translate(568,432)"/>
<path d="M0 0 C0 3.96 0 7.92 0 12 C-2.86177057 13.43088528 -4.93375773 12.59991697 -8 12 C-8 11.67 -8 11.34 -8 11 C-6.35 11 -4.7 11 -3 11 C-3 8.03 -3 5.06 -3 2 C-19.17 2 -35.34 2 -52 2 C-52 29.06 -52 56.12 -52 84 C-35.83 84 -19.66 84 -3 84 C-3 80.7 -3 77.4 -3 74 C-2.67 74 -2.34 74 -2 74 C-2 77.63 -2 81.26 -2 85 C-18.83 85 -35.66 85 -53 85 C-53 57.28 -53 29.56 -53 1 C-44.440625 0.835 -35.88125 0.67 -27.0625 0.5 C-23.00400757 0.42168945 -23.00400757 0.42168945 -18.86352539 0.34179688 C-16.73323582 0.30077363 -14.60294612 0.25975751 -12.47265625 0.21875 C-11.35499878 0.1971582 -10.23734131 0.17556641 -9.08581543 0.15332031 C-8.03019409 0.13301758 -6.97457275 0.11271484 -5.88696289 0.09179688 C-4.96540909 0.07403198 -4.04385529 0.05626709 -3.09437561 0.03796387 C-1 0 -1 0 0 0 Z " fill="#5B8AA4" transform="translate(246,731)"/>
<path d="M0 0 C2.64 0 5.28 0 8 0 C8 15.51 8 31.02 8 47 C0.08 47 -7.84 47 -16 47 C-16 31.82 -16 16.64 -16 1 C-15.01 1.495 -15.01 1.495 -14 2 C-14.33 16.19 -14.66 30.38 -15 45 C-8.07 45 -1.14 45 6 45 C5.98839844 42.39867187 5.97679687 39.79734375 5.96484375 37.1171875 C5.957035 34.5852877 5.95096859 32.05338926 5.94506836 29.52148438 C5.94005349 27.76789749 5.93323998 26.01431476 5.92456055 24.26074219 C5.91237 21.7337135 5.90674312 19.20674032 5.90234375 16.6796875 C5.89718246 15.90132538 5.89202118 15.12296326 5.88670349 14.3210144 C5.8862728 10.0996051 6.1641336 6.15908612 7 2 C5.02 2 3.04 2 1 2 C0.67 1.34 0.34 0.68 0 0 Z " fill="#34708F" transform="translate(538,517)"/>
<path d="M0 0 C21.12 0 42.24 0 64 0 C64 27.72 64 55.44 64 84 C61.36 84 58.72 84 56 84 C56 84.66 56 85.32 56 86 C54.02 86 52.04 86 50 86 C50 85.01 50 84.02 50 83 C54.29 83 58.58 83 63 83 C63 55.94 63 28.88 63 1 C42.21 1 21.42 1 0 1 C0 0.67 0 0.34 0 0 Z " fill="#5B8BA3" transform="translate(365,732)"/>
<path d="M0 0 C1.08152344 -0.02578125 2.16304687 -0.0515625 3.27734375 -0.078125 C4.19644531 0.03015625 5.11554687 0.1384375 6.0625 0.25 C6.7225 1.24 7.3825 2.23 8.0625 3.25 C1.7480611 8.63584495 -2.73374375 10.67433222 -10.9375 10.25 C-11.75 8.5625 -11.75 8.5625 -11.9375 6.25 C-9.5625 3.5625 -9.5625 3.5625 -6.9375 1.25 C-5.12630181 -0.56119819 -2.43968608 0.03481122 0 0 Z " fill="#487E9A" transform="translate(877.9375,718.75)"/>
<path d="M0 0 C20.79 0.33 41.58 0.66 63 1 C63 2.98 63 4.96 63 7 C62.67 7 62.34 7 62 7 C62 5.35 62 3.7 62 2 C42.53 2 23.06 2 3 2 C3 4.97 3 7.94 3 11 C9.93 11 16.86 11 24 11 C24 11.33 24 11.66 24 12 C16.08 12.33 8.16 12.66 0 13 C0 8.71 0 4.42 0 0 Z " fill="#5A8BA4" transform="translate(607,731)"/>
<path d="M0 0 C0.66 0 1.32 0 2 0 C5 5.625 5 5.625 5 9 C11.435 8.505 11.435 8.505 18 8 C18 6.35 18 4.7 18 3 C20.36556709 5.36556709 20.58244041 6.74303521 21 10 C20 11 20 11 16.40234375 11.09765625 C14.91403133 11.0909822 13.42573568 11.07902183 11.9375 11.0625 C10.79958008 11.05573242 10.79958008 11.05573242 9.63867188 11.04882812 C7.75908129 11.0370068 5.87953101 11.01907078 4 11 C2.68 7.37 1.36 3.74 0 0 Z " fill="#3F7895" transform="translate(578,746)"/>
<path d="M0 0 C0.99 0 1.98 0 3 0 C3 9.24 3 18.48 3 28 C2.67 28 2.34 28 2 28 C2 19.75 2 11.5 2 3 C1.34 3 0.68 3 0 3 C0 2.01 0 1.02 0 0 Z " fill="#5989A2" transform="translate(810,760)"/>
<path d="M0 0 C3.96 0 7.92 0 12 0 C11.67 1.32 11.34 2.64 11 4 C9.35 4 7.7 4 6 4 C6.33 3.34 6.66 2.68 7 2 C4.69 1.67 2.38 1.34 0 1 C0 0.67 0 0.34 0 0 Z " fill="#5989A4" transform="translate(872,721)"/>
</svg>
